<svg id="Layer_1" xmlns="http://www.w3.org/2000/svg" viewBox="0 0 330.5 51.3"><style>.st0{fill:#fff}</style><path class="st0" d="M50.9 9.8V19h15.8v9.4H50.9v20.7h-9.6V0h36.4v9.8H50.9zm41 39.3V0h9.6v39.8h26.7v9.3H91.9zm86.9-13.9c-.4 1.6-1.1 3.3-2 5-.8 1.5-1.8 2.8-3 4-1.2 1.2-2.5 2.2-4 3.1-1.5.9-3 1.5-4.7 2-1.7.5-3.4.7-5.1.7-2.7 0-5.2-.5-7.6-1.5-2.4-1-4.5-2.4-6.4-4.2-1.8-1.8-3.3-3.8-4.4-6.1-1.1-2.3-1.7-4.8-1.7-7.5V0h9.6v30.4c0 1.3.3 2.6.9 3.7.6 1.2 1.4 2.2 2.3 3.2 1 .9 2.1 1.6 3.3 2.1 1.2.5 2.5.8 3.8.8 1.8 0 3.5-.4 5.1-1.3 1.6-.9 2.8-2.1 3.7-3.7.2-.5.4-.9.6-1.3.2-.4.3-.8.4-1.3.1-.4.1-1 .1-1.5V0h9.6v29c.1 2.5-.1 4.5-.5 6.2zM232 49.1V22.5l-13 26.6-13.3-26.6v26.6H196V0h8.3L219 29.6 233.3 0h8.3v49.1H232zm26.2 0V0h35.7v9.8h-26.1v8.5h14.8v9.4h-14.8v11.7h26.7v9.8h-36.3z"/><circle class="st0" cx="7.6" cy="25" r="7.6"/><circle class="st0" cx="322.9" cy="25" r="7.6"/></svg>